<svg width="1920" height="1080" viewBox="0 0 1920 1080" fill="none" xmlns="http://www.w3.org/2000/svg">
  <!-- AESTHETIC Sage Cream Skincare Background 🌿✨ -->
  <defs>
    <!-- Mint Green Gradient -->
    <linearGradient id="mintGradient" x1="0%" y1="0%" x2="100%" y2="100%">
      <stop offset="0%" style="stop-color:#A8E6B5;stop-opacity:0.8"/>
      <stop offset="50%" style="stop-color:#7BC4A4;stop-opacity:0.6"/>
      <stop offset="100%" style="stop-color:#52C485;stop-opacity:0.4"/>
    </linearGradient>
    
    <!-- Eucalyptus Accent -->
    <radialGradient id="eucalyptusGlow" cx="50%" cy="50%" r="50%">
      <stop offset="0%" style="stop-color:#7BC4A4;stop-opacity:0.3"/>
      <stop offset="100%" style="stop-color:#A8E6B5;stop-opacity:0.1"/>
    </radialGradient>
    
    <!-- Soft Cream Glow -->
    <radialGradient id="creamGlow" cx="30%" cy="70%" r="60%">
      <stop offset="0%" style="stop-color:#F8FAF9;stop-opacity:0.9"/>
      <stop offset="100%" style="stop-color:#A8E6B5;stop-opacity:0.2"/>
    </radialGradient>
  </defs>
  
  <!-- Base holographic background -->
  <rect width="1920" height="1080" fill="url(#holoGradient)"/>
  
  <!-- Cosmic texture overlays -->
  <rect width="1920" height="1080" fill="url(#cosmicTexture)" opacity="0.6"/>
  <rect width="1920" height="1080" fill="url(#crystalPattern)" opacity="0.4"/>
  
  <!-- Large aesthetic bubbles -->
  <circle cx="200" cy="200" r="180" fill="url(#auroraBubble)" opacity="0.8"/>
  <circle cx="1720" cy="150" r="220" fill="url(#glacierBubble)" opacity="0.7"/>
  <circle cx="300" cy="880" r="200" fill="url(#roseQuartzBubble)" opacity="0.6"/>
  <circle cx="1600" cy="920" r="160" fill="url(#auroraBubble)" opacity="0.9"/>
  
  <!-- Medium holographic elements -->
  <circle cx="800" cy="120" r="100" fill="url(#glacierBubble)" opacity="0.7"/>
  <circle cx="1100" cy="280" r="120" fill="url(#roseQuartzBubble)" opacity="0.5"/>
  <circle cx="500" cy="500" r="90" fill="url(#auroraBubble)" opacity="0.8"/>
  <circle cx="1400" cy="600" r="110" fill="url(#glacierBubble)" opacity="0.6"/>
  <circle cx="100" cy="650" r="80" fill="url(#roseQuartzBubble)" opacity="0.7"/>
  <circle cx="1800" cy="800" r="95" fill="url(#auroraBubble)" opacity="0.5"/>
  
  <!-- Flowing aesthetic waves -->
  <path d="M0 400 Q480 350 960 400 T1920 400 L1920 500 Q1440 550 960 500 T0 500 Z" 
        fill="#E8B4FF" opacity="0.15"/>
  
  <path d="M0 600 Q320 550 640 600 Q960 650 1280 600 Q1600 550 1920 600 L1920 700 Q1600 750 1280 700 Q960 650 640 700 Q320 750 0 700 Z" 
        fill="#4FD1C7" opacity="0.12"/>
  
  <!-- Dreamy serum drops -->
  <path d="M600 300 Q650 250 700 300 Q750 350 800 320 Q850 280 900 320" 
        stroke="#FBB6CE" stroke-width="3" fill="none" opacity="0.3" stroke-linecap="round"/>
  
  <path d="M1200 700 Q1150 650 1100 700 Q1050 750 1100 780 Q1150 820 1200 780" 
        stroke="#E8B4FF" stroke-width="2.5" fill="none" opacity="0.4" stroke-linecap="round"/>
  
  <path d="M300 600 Q350 550 400 600 Q450 650 500 620" 
        stroke="#4FD1C7" stroke-width="2.8" fill="none" opacity="0.35" stroke-linecap="round"/>
  
  <!-- Aesthetic geometric elements -->
  <ellipse cx="1600" cy="400" rx="100" ry="25" fill="#B794F6" opacity="0.2" transform="rotate(30 1600 400)"/>
  <ellipse cx="200" cy="700" rx="80" ry="20" fill="#E8B4FF" opacity="0.25" transform="rotate(-45 200 700)"/>
  <ellipse cx="800" cy="800" rx="70" ry="18" fill="#4FD1C7" opacity="0.22" transform="rotate(60 800 800)"/>
  
  <!-- Micro aesthetic sparkles -->
  <circle cx="180" cy="350" r="5" fill="#E8B4FF" opacity="0.8"/>
  <circle cx="480" cy="220" r="4" fill="#4FD1C7" opacity="0.7"/>
  <circle cx="780" cy="380" r="4.5" fill="#FBB6CE" opacity="0.6"/>
  <circle cx="1080" cy="280" r="3.5" fill="#B794F6" opacity="0.9"/>
  <circle cx="1380" cy="420" r="5.5" fill="#E8B4FF" opacity="0.5"/>
  <circle cx="1680" cy="180" r="4" fill="#4FD1C7" opacity="0.8"/>
  <circle cx="380" cy="980" r="5" fill="#FBB6CE" opacity="0.7"/>
  <circle cx="680" cy="880" r="3" fill="#B794F6" opacity="0.9"/>
  <circle cx="980" cy="780" r="6" fill="#E8B4FF" opacity="0.6"/>
  <circle cx="1280" cy="980" r="4" fill="#4FD1C7" opacity="0.8"/>
  
  <!-- Holographic reflections -->
  <rect x="100" y="100" width="60" height="4" fill="#E8B4FF" opacity="0.3" transform="rotate(15 130 102)" rx="2"/>
  <rect x="1500" y="300" width="80" height="3" fill="#4FD1C7" opacity="0.4" transform="rotate(-20 1540 301.5)" rx="1.5"/>
  <rect x="300" y="500" width="50" height="3.5" fill="#FBB6CE" opacity="0.35" transform="rotate(45 325 501.75)" rx="1.75"/>
  <rect x="900" y="200" width="70" height="2.5" fill="#B794F6" opacity="0.45" transform="rotate(-30 935 201.25)" rx="1.25"/>
  
  <!-- Dreamy stars -->
  <path d="M500 150 L502 158 L510 158 L504 163 L506 171 L500 167 L494 171 L496 163 L490 158 L498 158 Z" fill="#E8B4FF" opacity="0.6"/>
  <path d="M1300 400 L1302 408 L1310 408 L1304 413 L1306 421 L1300 417 L1294 421 L1296 413 L1290 408 L1298 408 Z" fill="#4FD1C7" opacity="0.7"/>
  <path d="M700 750 L702 758 L710 758 L704 763 L706 771 L700 767 L694 771 L696 763 L690 758 L698 758 Z" fill="#FBB6CE" opacity="0.65"/>
</svg>
